<svg width="34" height="37" fill="none" xmlns="http://www.w3.org/2000/svg"><g filter="url(#filter0_d_2502_11804)"><path d="M17 10a6 6 0 106 6 6.006 6.006 0 00-6-6zm0 10a4 4 0 110-8 4 4 0 010 8zm6-17H11a7.007 7.007 0 00-7 7v12a7.008 7.008 0 007 7h12a7.008 7.008 0 007-7V10a7.008 7.008 0 00-7-7zm5 19a5 5 0 01-5 5H11a5 5 0 01-5-5V10a5 5 0 015-5h12a5 5 0 015 5v12zM25 9.5a1.5 1.5 0 11-3 0 1.5 1.5 0 013 0z" fill="#fff"/></g><defs><filter id="filter0_d_2502_11804" x="-3" y="0" width="40" height="40" filterUnits="userSpaceOnUse" color-interpolation-filters="sRGB"><feFlood flood-opacity="0" result="BackgroundImageFix"/><feColorMatrix in="SourceAlpha" values="0 0 0 0 0 0 0 0 0 0 0 0 0 0 0 0 0 0 127 0" result="hardAlpha"/><feOffset dy="4"/><feGaussianBlur stdDeviation="2"/><feComposite in2="hardAlpha" operator="out"/><feColorMatrix values="0 0 0 0 0 0 0 0 0 0 0 0 0 0 0 0 0 0 0.25 0"/><feBlend in2="BackgroundImageFix" result="effect1_dropShadow_2502_11804"/><feBlend in="SourceGraphic" in2="effect1_dropShadow_2502_11804" result="shape"/></filter></defs></svg>