<svg width="34" height="37" viewBox="0 0 34 37" fill="none" xmlns="http://www.w3.org/2000/svg">
<g filter="url(#filter0_d_2502_11804)">
<path d="M17 10C15.8133 10 14.6533 10.3519 13.6666 11.0112C12.6799 11.6705 11.9108 12.6075 11.4567 13.7039C11.0026 14.8003 10.8838 16.0067 11.1153 17.1705C11.3468 18.3344 11.9182 19.4035 12.7574 20.2426C13.5965 21.0818 14.6656 21.6532 15.8295 21.8847C16.9933 22.1162 18.1997 21.9974 19.2961 21.5433C20.3925 21.0892 21.3295 20.3201 21.9888 19.3334C22.6481 18.3467 23 17.1867 23 16C22.9983 14.4092 22.3657 12.884 21.2408 11.7592C20.116 10.6343 18.5908 10.0017 17 10ZM17 20C16.2089 20 15.4355 19.7654 14.7777 19.3259C14.1199 18.8864 13.6072 18.2616 13.3045 17.5307C13.0017 16.7998 12.9225 15.9956 13.0769 15.2196C13.2312 14.4437 13.6122 13.731 14.1716 13.1716C14.731 12.6122 15.4437 12.2312 16.2196 12.0769C16.9956 11.9225 17.7998 12.0017 18.5307 12.3045C19.2616 12.6072 19.8864 13.1199 20.3259 13.7777C20.7654 14.4355 21 15.2089 21 16C21 17.0609 20.5786 18.0783 19.8284 18.8284C19.0783 19.5786 18.0609 20 17 20ZM23 3H11C9.14409 3.00199 7.36477 3.74012 6.05245 5.05245C4.74012 6.36477 4.00199 8.14409 4 10V22C4.00199 23.8559 4.74012 25.6352 6.05245 26.9476C7.36477 28.2599 9.14409 28.998 11 29H23C24.8559 28.998 26.6352 28.2599 27.9476 26.9476C29.2599 25.6352 29.998 23.8559 30 22V10C29.998 8.14409 29.2599 6.36477 27.9476 5.05245C26.6352 3.74012 24.8559 3.00199 23 3ZM28 22C28 23.3261 27.4732 24.5979 26.5355 25.5355C25.5979 26.4732 24.3261 27 23 27H11C9.67392 27 8.40215 26.4732 7.46447 25.5355C6.52678 24.5979 6 23.3261 6 22V10C6 8.67392 6.52678 7.40215 7.46447 6.46447C8.40215 5.52678 9.67392 5 11 5H23C24.3261 5 25.5979 5.52678 26.5355 6.46447C27.4732 7.40215 28 8.67392 28 10V22ZM25 9.5C25 9.79667 24.912 10.0867 24.7472 10.3334C24.5824 10.58 24.3481 10.7723 24.074 10.8858C23.7999 10.9994 23.4983 11.0291 23.2074 10.9712C22.9164 10.9133 22.6491 10.7704 22.4393 10.5607C22.2296 10.3509 22.0867 10.0836 22.0288 9.79264C21.9709 9.50166 22.0007 9.20006 22.1142 8.92597C22.2277 8.65189 22.42 8.41762 22.6666 8.2528C22.9133 8.08797 23.2033 8 23.5 8C23.8978 8 24.2794 8.15804 24.5607 8.43934C24.842 8.72064 25 9.10218 25 9.5Z" fill="white"/>
</g>
<defs>
<filter id="filter0_d_2502_11804" x="-3" y="0" width="40" height="40" filterUnits="userSpaceOnUse" color-interpolation-filters="sRGB">
<feFlood flood-opacity="0" result="BackgroundImageFix"/>
<feColorMatrix in="SourceAlpha" type="matrix" values="0 0 0 0 0 0 0 0 0 0 0 0 0 0 0 0 0 0 127 0" result="hardAlpha"/>
<feOffset dy="4"/>
<feGaussianBlur stdDeviation="2"/>
<feComposite in2="hardAlpha" operator="out"/>
<feColorMatrix type="matrix" values="0 0 0 0 0 0 0 0 0 0 0 0 0 0 0 0 0 0 0.25 0"/>
<feBlend mode="normal" in2="BackgroundImageFix" result="effect1_dropShadow_2502_11804"/>
<feBlend mode="normal" in="SourceGraphic" in2="effect1_dropShadow_2502_11804" result="shape"/>
</filter>
</defs>
</svg>
